<mxfile host="app.diagrams.net" agent="Mozilla/5.0 (Windows NT 10.0; Win64; x64; rv:143.0) Gecko/20100101 Firefox/143.0" version="28.2.3">
  <diagram name="Side-1" id="4aOrvDR574CowG43dqmp">
    <mxGraphModel dx="2548" dy="1306" grid="1" gridSize="10" guides="1" tooltips="1" connect="1" arrows="1" fold="1" page="1" pageScale="1" pageWidth="827" pageHeight="1169" math="0" shadow="0">
      <root>
        <mxCell id="0" />
        <mxCell id="1" parent="0" />
        <mxCell id="MZCAMiVsQpiAYw7-ONOL-2" value="&lt;div&gt;AWS&lt;/div&gt;" style="swimlane;whiteSpace=wrap;html=1;" vertex="1" parent="1">
          <mxGeometry x="-480" y="150" width="700" height="540" as="geometry" />
        </mxCell>
        <mxCell id="MZCAMiVsQpiAYw7-ONOL-10" value="Amazon API Gateway" style="sketch=0;outlineConnect=0;fontColor=#232F3E;gradientColor=none;strokeColor=#ffffff;fillColor=#232F3E;dashed=0;verticalLabelPosition=middle;verticalAlign=bottom;align=center;html=1;whiteSpace=wrap;fontSize=10;fontStyle=1;spacing=3;shape=mxgraph.aws4.productIcon;prIcon=mxgraph.aws4.api_gateway;" vertex="1" parent="MZCAMiVsQpiAYw7-ONOL-2">
          <mxGeometry x="30" y="200" width="80" height="110" as="geometry" />
        </mxCell>
        <mxCell id="MZCAMiVsQpiAYw7-ONOL-13" value="Amazon IoT Core" style="sketch=0;outlineConnect=0;fontColor=#232F3E;gradientColor=none;strokeColor=#ffffff;fillColor=#232F3E;dashed=0;verticalLabelPosition=middle;verticalAlign=bottom;align=center;html=1;whiteSpace=wrap;fontSize=10;fontStyle=1;spacing=3;shape=mxgraph.aws4.productIcon;prIcon=mxgraph.aws4.iot_core;" vertex="1" parent="MZCAMiVsQpiAYw7-ONOL-2">
          <mxGeometry x="570" y="380" width="100" height="140" as="geometry" />
        </mxCell>
        <mxCell id="MZCAMiVsQpiAYw7-ONOL-14" value="AWS Greengrass" style="sketch=0;outlineConnect=0;fontColor=#232F3E;gradientColor=none;strokeColor=#ffffff;fillColor=#232F3E;dashed=0;verticalLabelPosition=middle;verticalAlign=bottom;align=center;html=1;whiteSpace=wrap;fontSize=10;fontStyle=1;spacing=3;shape=mxgraph.aws4.productIcon;prIcon=mxgraph.aws4.greengrass;" vertex="1" parent="MZCAMiVsQpiAYw7-ONOL-2">
          <mxGeometry x="570" y="225" width="100" height="120" as="geometry" />
        </mxCell>
        <mxCell id="MZCAMiVsQpiAYw7-ONOL-15" value="&lt;div&gt;create-deployment&lt;/div&gt;" style="sketch=0;outlineConnect=0;fontColor=#232F3E;gradientColor=none;strokeColor=#ffffff;fillColor=#232F3E;dashed=0;verticalLabelPosition=middle;verticalAlign=bottom;align=center;html=1;whiteSpace=wrap;fontSize=10;fontStyle=1;spacing=3;shape=mxgraph.aws4.productIcon;prIcon=mxgraph.aws4.lambda;" vertex="1" parent="MZCAMiVsQpiAYw7-ONOL-2">
          <mxGeometry x="370" y="40" width="100" height="120" as="geometry" />
        </mxCell>
        <mxCell id="MZCAMiVsQpiAYw7-ONOL-21" value="reboot-device" style="sketch=0;outlineConnect=0;fontColor=#232F3E;gradientColor=none;strokeColor=#ffffff;fillColor=#232F3E;dashed=0;verticalLabelPosition=middle;verticalAlign=bottom;align=center;html=1;whiteSpace=wrap;fontSize=10;fontStyle=1;spacing=3;shape=mxgraph.aws4.productIcon;prIcon=mxgraph.aws4.lambda;" vertex="1" parent="MZCAMiVsQpiAYw7-ONOL-2">
          <mxGeometry x="160" y="270" width="100" height="120" as="geometry" />
        </mxCell>
        <mxCell id="MZCAMiVsQpiAYw7-ONOL-16" value="connection-status" style="sketch=0;outlineConnect=0;fontColor=#232F3E;gradientColor=none;strokeColor=#ffffff;fillColor=#232F3E;dashed=0;verticalLabelPosition=middle;verticalAlign=bottom;align=center;html=1;whiteSpace=wrap;fontSize=10;fontStyle=1;spacing=3;shape=mxgraph.aws4.productIcon;prIcon=mxgraph.aws4.dynamodb;" vertex="1" parent="MZCAMiVsQpiAYw7-ONOL-2">
          <mxGeometry x="370" y="190" width="97" height="120" as="geometry" />
        </mxCell>
        <mxCell id="MZCAMiVsQpiAYw7-ONOL-46" value="Amazon ECR" style="sketch=0;outlineConnect=0;fontColor=#232F3E;gradientColor=none;strokeColor=#ffffff;fillColor=#232F3E;dashed=0;verticalLabelPosition=middle;verticalAlign=bottom;align=center;html=1;whiteSpace=wrap;fontSize=10;fontStyle=1;spacing=3;shape=mxgraph.aws4.productIcon;prIcon=mxgraph.aws4.ecr;" vertex="1" parent="MZCAMiVsQpiAYw7-ONOL-2">
          <mxGeometry x="570" y="60" width="100" height="120" as="geometry" />
        </mxCell>
        <mxCell id="MZCAMiVsQpiAYw7-ONOL-3" value="&lt;div&gt;Edge Location&lt;/div&gt;" style="swimlane;whiteSpace=wrap;html=1;" vertex="1" parent="1">
          <mxGeometry x="390" y="150" width="700" height="540" as="geometry" />
        </mxCell>
        <mxCell id="MZCAMiVsQpiAYw7-ONOL-27" value="Group A" style="swimlane;whiteSpace=wrap;html=1;" vertex="1" parent="MZCAMiVsQpiAYw7-ONOL-3">
          <mxGeometry x="20" y="50" width="220" height="470" as="geometry" />
        </mxCell>
        <mxCell id="MZCAMiVsQpiAYw7-ONOL-30" value="Device" style="swimlane;whiteSpace=wrap;html=1;" vertex="1" parent="MZCAMiVsQpiAYw7-ONOL-27">
          <mxGeometry x="20" y="40" width="180" height="180" as="geometry" />
        </mxCell>
        <mxCell id="MZCAMiVsQpiAYw7-ONOL-11" value="Greengrass Core" style="sketch=0;outlineConnect=0;fontColor=#232F3E;gradientColor=none;strokeColor=#ffffff;fillColor=#232F3E;dashed=0;verticalLabelPosition=middle;verticalAlign=bottom;align=center;html=1;whiteSpace=wrap;fontSize=10;fontStyle=1;spacing=3;shape=mxgraph.aws4.productIcon;prIcon=mxgraph.aws4.greengrass;" vertex="1" parent="MZCAMiVsQpiAYw7-ONOL-30">
          <mxGeometry x="13" y="50" width="80" height="110" as="geometry" />
        </mxCell>
        <mxCell id="MZCAMiVsQpiAYw7-ONOL-47" value="Application" style="sketch=0;outlineConnect=0;fontColor=#232F3E;gradientColor=none;fillColor=#7AA116;strokeColor=none;dashed=0;verticalLabelPosition=bottom;verticalAlign=top;align=center;html=1;fontSize=12;fontStyle=0;aspect=fixed;pointerEvents=1;shape=mxgraph.aws4.iot_greengrass_component;" vertex="1" parent="MZCAMiVsQpiAYw7-ONOL-30">
          <mxGeometry x="120" y="40" width="40" height="40" as="geometry" />
        </mxCell>
        <mxCell id="MZCAMiVsQpiAYw7-ONOL-63" value="Core (status)" style="sketch=0;outlineConnect=0;fontColor=#232F3E;gradientColor=none;fillColor=#7AA116;strokeColor=none;dashed=0;verticalLabelPosition=bottom;verticalAlign=top;align=center;html=1;fontSize=12;fontStyle=0;aspect=fixed;pointerEvents=1;shape=mxgraph.aws4.iot_greengrass_component;" vertex="1" parent="MZCAMiVsQpiAYw7-ONOL-30">
          <mxGeometry x="120" y="110" width="40" height="40" as="geometry" />
        </mxCell>
        <mxCell id="MZCAMiVsQpiAYw7-ONOL-31" value="Device" style="swimlane;whiteSpace=wrap;html=1;" vertex="1" parent="MZCAMiVsQpiAYw7-ONOL-27">
          <mxGeometry x="20" y="230" width="180" height="40" as="geometry" />
        </mxCell>
        <mxCell id="MZCAMiVsQpiAYw7-ONOL-38" value="Device" style="swimlane;whiteSpace=wrap;html=1;" vertex="1" parent="MZCAMiVsQpiAYw7-ONOL-27">
          <mxGeometry x="20" y="280" width="180" height="40" as="geometry" />
        </mxCell>
        <mxCell id="MZCAMiVsQpiAYw7-ONOL-39" value="Device" style="swimlane;whiteSpace=wrap;html=1;" vertex="1" parent="MZCAMiVsQpiAYw7-ONOL-27">
          <mxGeometry x="20" y="330" width="180" height="40" as="geometry" />
        </mxCell>
        <mxCell id="MZCAMiVsQpiAYw7-ONOL-28" value="Group B" style="swimlane;whiteSpace=wrap;html=1;" vertex="1" parent="MZCAMiVsQpiAYw7-ONOL-3">
          <mxGeometry x="250" y="50" width="200" height="470" as="geometry" />
        </mxCell>
        <mxCell id="MZCAMiVsQpiAYw7-ONOL-40" value="Device" style="swimlane;whiteSpace=wrap;html=1;" vertex="1" parent="MZCAMiVsQpiAYw7-ONOL-28">
          <mxGeometry x="10" y="40" width="180" height="40" as="geometry" />
        </mxCell>
        <mxCell id="MZCAMiVsQpiAYw7-ONOL-41" value="Device" style="swimlane;whiteSpace=wrap;html=1;" vertex="1" parent="MZCAMiVsQpiAYw7-ONOL-28">
          <mxGeometry x="10" y="90" width="180" height="40" as="geometry" />
        </mxCell>
        <mxCell id="MZCAMiVsQpiAYw7-ONOL-42" value="Device" style="swimlane;whiteSpace=wrap;html=1;" vertex="1" parent="MZCAMiVsQpiAYw7-ONOL-28">
          <mxGeometry x="10" y="140" width="180" height="40" as="geometry" />
        </mxCell>
        <mxCell id="MZCAMiVsQpiAYw7-ONOL-29" value="Group C" style="swimlane;whiteSpace=wrap;html=1;" vertex="1" parent="MZCAMiVsQpiAYw7-ONOL-3">
          <mxGeometry x="480" y="50" width="200" height="470" as="geometry" />
        </mxCell>
        <mxCell id="MZCAMiVsQpiAYw7-ONOL-43" value="Device" style="swimlane;whiteSpace=wrap;html=1;" vertex="1" parent="MZCAMiVsQpiAYw7-ONOL-29">
          <mxGeometry x="10" y="40" width="180" height="40" as="geometry" />
        </mxCell>
        <mxCell id="MZCAMiVsQpiAYw7-ONOL-44" value="Device" style="swimlane;whiteSpace=wrap;html=1;" vertex="1" parent="MZCAMiVsQpiAYw7-ONOL-29">
          <mxGeometry x="10" y="90" width="180" height="40" as="geometry" />
        </mxCell>
        <mxCell id="MZCAMiVsQpiAYw7-ONOL-17" value="" style="sketch=0;outlineConnect=0;fontColor=#232F3E;gradientColor=none;fillColor=#232F3D;strokeColor=none;dashed=0;verticalLabelPosition=bottom;verticalAlign=top;align=center;html=1;fontSize=12;fontStyle=0;aspect=fixed;pointerEvents=1;shape=mxgraph.aws4.user;" vertex="1" parent="1">
          <mxGeometry x="-640" y="400" width="78" height="78" as="geometry" />
        </mxCell>
        <mxCell id="MZCAMiVsQpiAYw7-ONOL-69" value="Icons Description" style="swimlane;horizontal=0;whiteSpace=wrap;html=1;" vertex="1" parent="1">
          <mxGeometry x="780" y="860" width="200" height="160" as="geometry" />
        </mxCell>
        <mxCell id="MZCAMiVsQpiAYw7-ONOL-64" value="Greengrass Component" style="sketch=0;outlineConnect=0;fontColor=#232F3E;gradientColor=none;fillColor=#7AA116;strokeColor=none;dashed=0;verticalLabelPosition=bottom;verticalAlign=top;align=center;html=1;fontSize=12;fontStyle=0;aspect=fixed;pointerEvents=1;shape=mxgraph.aws4.iot_greengrass_component;" vertex="1" parent="MZCAMiVsQpiAYw7-ONOL-69">
          <mxGeometry x="90" y="50" width="40" height="40" as="geometry" />
        </mxCell>
        <mxCell id="MZCAMiVsQpiAYw7-ONOL-70" value="" style="endArrow=classic;html=1;rounded=0;exitX=1;exitY=0.5;exitDx=0;exitDy=0;exitPerimeter=0;entryX=0;entryY=0.5;entryDx=0;entryDy=0;" edge="1" parent="1" source="MZCAMiVsQpiAYw7-ONOL-14" target="MZCAMiVsQpiAYw7-ONOL-27">
          <mxGeometry width="50" height="50" relative="1" as="geometry">
            <mxPoint x="230" y="440" as="sourcePoint" />
            <mxPoint x="300" y="420" as="targetPoint" />
          </mxGeometry>
        </mxCell>
        <mxCell id="MZCAMiVsQpiAYw7-ONOL-71" value="Deploy&lt;br&gt;to group" style="edgeLabel;html=1;align=center;verticalAlign=middle;resizable=0;points=[];" vertex="1" connectable="0" parent="MZCAMiVsQpiAYw7-ONOL-70">
          <mxGeometry x="-0.1022" y="-2" relative="1" as="geometry">
            <mxPoint as="offset" />
          </mxGeometry>
        </mxCell>
        <mxCell id="MZCAMiVsQpiAYw7-ONOL-72" value="" style="endArrow=classic;html=1;rounded=0;entryX=1;entryY=0.417;entryDx=0;entryDy=0;entryPerimeter=0;exitX=-0.038;exitY=0.364;exitDx=0;exitDy=0;exitPerimeter=0;" edge="1" parent="1" source="MZCAMiVsQpiAYw7-ONOL-11" target="MZCAMiVsQpiAYw7-ONOL-46">
          <mxGeometry width="50" height="50" relative="1" as="geometry">
            <mxPoint x="280" y="300" as="sourcePoint" />
            <mxPoint x="330" y="250" as="targetPoint" />
          </mxGeometry>
        </mxCell>
        <mxCell id="MZCAMiVsQpiAYw7-ONOL-73" value="Pull image" style="edgeLabel;html=1;align=center;verticalAlign=middle;resizable=0;points=[];" vertex="1" connectable="0" parent="MZCAMiVsQpiAYw7-ONOL-72">
          <mxGeometry x="0.0801" relative="1" as="geometry">
            <mxPoint x="-1" as="offset" />
          </mxGeometry>
        </mxCell>
      </root>
    </mxGraphModel>
  </diagram>
</mxfile>
